<svg xmlns="http://www.w3.org/2000/svg" width="920" height="540" viewBox="0 0 920 540" role="img" aria-labelledby="title desc">
  <title id="title">Dynamic Coding Practice Stats</title>
  <desc id="desc">Auto-generated LeetCode, GeeksforGeeks and Codolio statistics for imrajeevnayan</desc>
  <style>
    .bg { fill: #0d1117; }
    .card { fill: #161b22; stroke: #30363d; stroke-width: 1; }
    .light-card { fill: #ffffff; stroke: #d8dee4; stroke-width: 1; }
    .title { font: 700 18px 'Segoe UI', Ubuntu, sans-serif; fill: #58a6ff; }
    .label { font: 700 12px 'Segoe UI', Ubuntu, sans-serif; fill: #f0f6fc; }
    .value { font: 800 28px 'Segoe UI', Ubuntu, sans-serif; fill: #f0f6fc; }
    .muted { font: 500 12px 'Segoe UI', Ubuntu, sans-serif; fill: #8b949e; }
    .tiny { font: 600 10px 'Segoe UI', Ubuntu, sans-serif; fill: #8b949e; }
    .dark-title { font: 700 15px 'Segoe UI', Ubuntu, sans-serif; fill: #0b1220; }
    .dark-label { font: 600 12px 'Segoe UI', Ubuntu, sans-serif; fill: #111827; }
    .dark-value { font: 800 13px 'Segoe UI', Ubuntu, sans-serif; fill: #111827; }
    .big-dark { font: 900 32px 'Segoe UI', Ubuntu, sans-serif; fill: #050816; }
    .tiny-dark { font: 700 10px 'Segoe UI', Ubuntu, sans-serif; fill: #64748b; }
    .donut-number { font: 900 32px 'Segoe UI', Ubuntu, sans-serif; fill: #050816; }
    .donut-caption { font: 600 11px 'Segoe UI', Ubuntu, sans-serif; fill: #111827; }
    .mini-icon { font: 900 15px 'Segoe UI', Ubuntu, sans-serif; }
  </style>

  <rect class="bg" width="920" height="540" rx="14" />
  <text class="title" x="28" y="34">Competitive Programming &amp; DSA Overview</text>
  <text class="muted" x="28" y="54">Auto-updated from LeetCode, GeeksforGeeks &amp; Codolio - 2026-07-24 12:21 UTC</text>

  <g transform="translate(24, 76)">
    <rect class="card" width="188" height="270" rx="8" />
    <text class="label" x="20" y="34">TOTAL SOLVED</text>
    <text class="value" x="20" y="78" fill="#3fb950">1,444</text>
    <text class="muted" x="20" y="98">Live platform total</text>
    <line x1="20" x2="168" y1="126" y2="126" stroke="#30363d" />
    <text class="label" x="20" y="154">ACTIVE SOURCES</text>
    <text class="value" x="20" y="194" fill="#58a6ff">3</text>
    <text class="muted" x="20" y="214">LeetCode + GFG + Codolio</text>
    <text class="tiny" x="20" y="246">Regenerated by GitHub Actions</text>
  </g>

  <g transform="translate(228, 76)">
    <rect class="card" width="228" height="270" rx="8" />
    <circle cx="28" cy="28" r="8" fill="#ffa116" />
    <text class="title" x="44" y="34" fill="#ffa116">LeetCode</text>
    <text class="value" x="20" y="78">579 <tspan class="muted">Solved</tspan></text>
    <text class="muted" x="20" y="98">Accepted submissions: 1,716</text>

    <text class="label" x="20" y="132">Easy</text>
    <text class="muted" x="182" y="132">301</text>
    
    <rect x="20" y="142" width="188" height="8" rx="4" fill="#253041" />
    <rect x="20" y="142" width="98" height="8" rx="4" fill="#00b8a3" />

    <text class="label" x="20" y="176">Medium</text>
    <text class="muted" x="182" y="176">244</text>
    
    <rect x="20" y="186" width="188" height="8" rx="4" fill="#253041" />
    <rect x="20" y="186" width="79" height="8" rx="4" fill="#ffc01e" />

    <text class="label" x="20" y="220">Hard</text>
    <text class="muted" x="182" y="220">34</text>
    
    <rect x="20" y="230" width="188" height="8" rx="4" fill="#253041" />
    <rect x="20" y="230" width="11" height="8" rx="4" fill="#ff375f" />
  </g>

  <g transform="translate(472, 76)">
    <rect class="light-card" width="416" height="270" rx="12" />
    <text class="dark-title" x="28" y="34">Problems Overview</text>
    <circle cx="112" cy="146" r="62" fill="none" stroke="#eef2f7" stroke-width="24" />
    <circle cx="112" cy="146" r="62" fill="none" stroke="#cceea2" stroke-width="24" stroke-dasharray="106.74 282.82" stroke-dashoffset="25.00" transform="rotate(-90 112 146)" stroke-linecap="butt" />
<circle cx="112" cy="146" r="62" fill="none" stroke="#a7d477" stroke-width="24" stroke-dasharray="152.29 237.27" stroke-dashoffset="-81.74" transform="rotate(-90 112 146)" stroke-linecap="butt" />
<circle cx="112" cy="146" r="62" fill="none" stroke="#ffb340" stroke-width="24" stroke-dasharray="122.37 267.18" stroke-dashoffset="-234.03" transform="rotate(-90 112 146)" stroke-linecap="butt" />
<circle cx="112" cy="146" r="62" fill="none" stroke="#ff7043" stroke-width="24" stroke-dasharray="8.16 381.40" stroke-dashoffset="-356.40" transform="rotate(-90 112 146)" stroke-linecap="butt" />
    <text class="donut-number" x="112" y="138" text-anchor="middle">573</text>
    <text class="donut-caption" x="112" y="158" text-anchor="middle">Problems</text>
    <text class="donut-caption" x="112" y="172" text-anchor="middle">Solved</text>

    <rect x="210" y="77" width="10" height="10" rx="2" fill="#8ee8e0" />
    <text class="dark-label" x="228" y="86">School (0)</text>
<rect x="210" y="105" width="10" height="10" rx="2" fill="#cceea2" />
    <text class="dark-label" x="228" y="114">Basic (157)</text>
<rect x="210" y="133" width="10" height="10" rx="2" fill="#a7d477" />
    <text class="dark-label" x="228" y="142">Easy (224)</text>
<rect x="210" y="161" width="10" height="10" rx="2" fill="#ffb340" />
    <text class="dark-label" x="228" y="170">Medium (180)</text>
<rect x="210" y="189" width="10" height="10" rx="2" fill="#ff7043" />
    <text class="dark-label" x="228" y="198">Hard (12)</text>
  </g>

  <g transform="translate(472, 362)">
    <rect width="416" height="44" rx="10" fill="#121821" stroke="#30363d" />
    <text class="muted" x="18" y="27">GFG dynamic details</text>
    <text class="label" x="158" y="27">Score 1,406</text>
    <text class="label" x="248" y="27">Monthly 169</text>
    <text class="label" x="344" y="27">Streak 1</text>
  </g>

  
    <g transform="translate(24, 362)">
      <rect width="250" height="48" rx="12" fill="#f7fbf8" stroke="#d7f0df" />
      <rect x="12" y="10" width="28" height="28" rx="9" fill="#2f8d4622" />
      <text x="26" y="30" text-anchor="middle" class="mini-icon" fill="#2f8d46">CS</text>
      <text x="52" y="30" class="dark-label">Coding Score</text>
      <rect x="200" y="10" width="36" height="28" rx="14" fill="#ffffff" stroke="#bfe8ce" />
      <text x="218" y="29" text-anchor="middle" class="dark-value">1,406</text>
    </g>
  
    <g transform="translate(292, 362)">
      <rect width="250" height="48" rx="12" fill="#f7fbf8" stroke="#d7f0df" />
      <rect x="12" y="10" width="28" height="28" rx="9" fill="#3b82f622" />
      <text x="26" y="30" text-anchor="middle" class="mini-icon" fill="#3b82f6">OK</text>
      <text x="52" y="30" class="dark-label">Problems Solved</text>
      <rect x="200" y="10" width="36" height="28" rx="14" fill="#ffffff" stroke="#bfe8ce" />
      <text x="218" y="29" text-anchor="middle" class="dark-value">573</text>
    </g>

  <g transform="translate(24, 430)">
    <rect width="864" height="86" rx="12" fill="#f8fafc" stroke="#d8dee4" />
    <text class="dark-title" x="18" y="28" fill="#0f172a">Codolio Dynamic Summary</text>
    <text class="dark-label" x="18" y="50" fill="#64748b">Aggregated from verified Codolio platform profiles</text>
    <text class="dark-label" x="680" y="28" fill="#f97316">Submissions 3,545</text>
    <text class="dark-label" x="680" y="50" fill="#166534">Max 45 | Current 28</text>
  </g>

  
    <g transform="translate(300, 452)">
      <rect width="132" height="86" rx="10" fill="#ffffff" stroke="#d8dee4" />
      <text x="18" y="30" class="dark-label" fill="#4b5563">Total Questions</text>
      <text x="18" y="66" class="big-dark" fill="#050816">1,444</text>
      <text x="114" y="30" text-anchor="end" class="tiny-dark" fill="#f97316">Codolio</text>
    </g>
  
    <g transform="translate(448, 452)">
      <rect width="132" height="86" rx="10" fill="#ffffff" stroke="#d8dee4" />
      <text x="18" y="30" class="dark-label" fill="#4b5563">Active Days</text>
      <text x="18" y="66" class="big-dark" fill="#050816">275</text>
      <text x="114" y="30" text-anchor="end" class="tiny-dark" fill="#2f8d46">Live</text>
    </g>
  
    <g transform="translate(596, 452)">
      <rect width="118" height="86" rx="10" fill="#ffffff" stroke="#d8dee4" />
      <text x="18" y="30" class="dark-label" fill="#4b5563">Platforms</text>
      <text x="18" y="66" class="big-dark" fill="#050816">5</text>
      <text x="100" y="30" text-anchor="end" class="tiny-dark" fill="#58a6ff">Synced</text>
    </g>
</svg>
